<?xml version="1.0" encoding="UTF-8"?>
<svg width="1266px" height="1268px" viewBox="0 0 1266 1268" version="1.1" xmlns="http://www.w3.org/2000/svg" xmlns:xlink="http://www.w3.org/1999/xlink">
    <title>E6386375-D437-433C-8A1C-247F98ACECCB</title>
    <defs>
        <filter color-interpolation-filters="auto" id="filter-1">
            <feColorMatrix in="SourceGraphic" type="matrix" values="0 0 0 0 0.909906 0 0 0 0 0.909906 0 0 0 0 0.909906 0 0 0 1.000000 0"></feColorMatrix>
        </filter>
    </defs>
    <g id="Ãrea-Autenticada" stroke="none" stroke-width="1" fill="none" fill-rule="evenodd" opacity="0.316898891">
        <g id="Logo-marca" transform="translate(-440.000000, -297.000000)" filter="url(#filter-1)">
            <g transform="translate(440.000000, 297.000000)">
                <path d="M462.29675,258.716873 C630.736105,135.469967 803.044159,113.138847 905.139425,113.138847 C942.646609,113.138847 976.751531,116.160278 1006,120.857229 C898.554404,42.4373679 769.597739,0 634.001178,0 C546.585021,0 462.461375,18.3208572 385.49894,51.2544522 C379.599859,67.020827 372.905087,82.4301238 365.634126,98.4711742 C347.223504,139.123151 325.218559,188.39994 307,273 C348.238695,263.79837 392.083961,257.892846 437.877296,257.892846 C446.081135,257.892846 454.175224,258.332327 462.29675,258.716873" id="Fill-90" fill="#FFFFFF"></path>
                <path d="M959.308166,511 C947.477405,511 934.903783,511.356222 922,511.931658 C1007.45661,627.539418 1037.25362,768.466347 1010.9233,934 C1108.34824,899.884887 1185.52331,857.686273 1221.6484,837.737838 C1226.93098,834.778454 1231.41566,832.367105 1235.10246,830.394183 C1253.04119,776.138822 1263.38623,719.006284 1266,660.394053 C1186.87147,551.718922 1103.03815,511 959.308166,511" id="Fill-92" fill="#FFFFFF"></path>
                <path d="M1266,600.638828 C1257.74767,441.84444 1191.94908,294.846207 1078.53455,183.731381 C1069.04437,174.382447 1005.30887,152 903.970244,152 C775.536468,152 530.304701,188.955785 330.625802,436.427558 C275.335185,505.004736 247.057198,582.325917 222.135158,650.545636 C191.546519,734.218592 165.13906,806.48035 96.9472988,817.231624 C72.2178139,821.163675 42.481915,813.327069 18,793.226862 C68.146664,989.471978 209.976724,1151.42851 402.035972,1226 C362.892416,1165.17694 346.360246,1115.79257 346.360246,1020.26847 C346.30523,738.5356 571.813926,505.527177 870.878397,478.277785 C902.567348,475.390614 932.193216,473.93328 959.068307,473.93328 C1096.74469,473.93328 1187.19024,510.201644 1266,600.638828 Z" id="Fill-94" fill="#FFFFFF"></path>
                <path d="M399.221559,909.505699 C390.645413,945.267638 386,982.423965 386,1020.56456 C386,1126.23727 406.258397,1165.74491 463.487682,1244.81489 C517.63835,1259.82506 574.675221,1268 633.581253,1268 C887.484665,1268 1115.05491,1117.65221 1215,889 C1129.70583,934.850743 943.531981,1026.06009 743.064558,1026.11477 C611.811035,1026.11477 496.335422,986.552446 399.221559,909.505699" id="Fill-96" fill="#FFFFFF"></path>
                <path d="M0.906384032,655.792298 C6.56441768,748.879602 61.8263774,782.332852 93.1103596,777.557737 C138.896486,770.340178 159.52359,714.054193 188.060953,636.005757 C201.958842,598.024381 217.999093,554.773912 239.779776,511.139238 C240.493896,446.373307 248.047097,383.500956 256.72641,328.175483 C277.243649,198.835723 306.440201,134.536327 329.896321,82.8607978 C330.940036,80.5006833 331.956285,78.2503417 333,76 C129.173458,185.90998 0,399.308234 0,633.041893 C0,640.753429 0.302128011,655.792298 0.576789838,655.792298 L0.906384032,655.792298 Z" id="Fill-98" fill="#FFFFFF"></path>
            </g>
        </g>
    </g>
</svg>