<svg xmlns="http://www.w3.org/2000/svg" xmlns:xlink="http://www.w3.org/1999/xlink" id="Camada_1"
     viewBox="0 0 1287.67 212.43">
    <defs>
        <style>
            .cls-1{fill:url(#linear-gradient);}.cls-2{fill:#fff;}.cls-3{fill:#fff;}.cls-4{fill:#fff;}.cls-5{fill:url(#linear-gradient-3);}.cls-6{fill:url(#linear-gradient-2);}</style>
        <linearGradient id="linear-gradient" x1="128.19" y1="97.08" x2="210.83" y2="49.66"
                        gradientUnits="userSpaceOnUse">
            <stop offset="0" stop-color="#b60015"></stop>
            <stop offset="1" stop-color="#6a0e15"></stop>
        </linearGradient>
        <linearGradient id="linear-gradient-2" x1="69.81" y1="198.87" x2="96.71" y2="122.01"
                        gradientUnits="userSpaceOnUse">
            <stop offset="0" stop-color="#1e5d24"></stop>
            <stop offset=".7" stop-color="#1d7a26"></stop>
        </linearGradient>
        <linearGradient id="linear-gradient-3" x1="22.25" y1="167.86" x2="186.71" y2="58.53"
                        gradientUnits="userSpaceOnUse">
            <stop offset="0" stop-color="#1d7a26"></stop>
            <stop offset="0" stop-color="#217a25"></stop>
            <stop offset=".04" stop-color="#4c841c"></stop>
            <stop offset=".09" stop-color="#728d14"></stop>
            <stop offset=".13" stop-color="#93950e"></stop>
            <stop offset=".18" stop-color="#ad9b09"></stop>
            <stop offset=".24" stop-color="#c1a005"></stop>
            <stop offset=".3" stop-color="#d0a302"></stop>
            <stop offset=".38" stop-color="#d8a500"></stop>
            <stop offset=".5" stop-color="#dba600"></stop>
            <stop offset=".56" stop-color="#d9a000"></stop>
            <stop offset=".64" stop-color="#d69102"></stop>
            <stop offset=".73" stop-color="#d07705"></stop>
            <stop offset=".83" stop-color="#c8540a"></stop>
            <stop offset=".93" stop-color="#be2610"></stop>
            <stop offset="1" stop-color="#b60015"></stop>
        </linearGradient>
    </defs>
    <path class="cls-4"
          d="m308.33,17.51h6.4v51.3c0,10.7,4.6,15.9,14,15.9s14-5.2,14-15.9V17.51h6.4v51.4c0,15-7.3,21.2-20.4,21.2s-20.4-6.2-20.4-21.2V17.51Z"></path>
    <path class="cls-4"
          d="m359.33,17.51h8.6l27.3,62.2h.2V17.51h6.4v71.4h-8.6l-27.3-62.2h-.2v62.2h-6.4V17.51Z"></path>
    <path class="cls-4" d="m413.44,17.51h6.4v71.4h-6.4V17.51Z"></path>
    <path class="cls-4"
          d="m431.44,17.51h17.2c20.8,0,25.9,12.4,25.9,35.7s-5.1,35.7-25.9,35.7h-17.2V17.51Zm6.4,66h10.4c14,0,19.9-7,19.9-30.2s-5.9-30.4-19.9-30.4h-10.4v60.6Z"></path>
    <path class="cls-4"
          d="m500.55,17.51h8l21.1,71.4h-6.8l-5.8-20.8h-25l-5.8,20.8h-6.8l21.1-71.4Zm15.1,45.2l-11-40.2h-.2l-11,40.2h22.2Z"></path>
    <path class="cls-4"
          d="m535.15,17.51h17.2c20.8,0,25.9,12.4,25.9,35.7s-5.1,35.7-25.9,35.7h-17.2V17.51Zm6.4,66h10.4c14,0,19.9-7,19.9-30.2s-5.9-30.4-19.9-30.4h-10.4v60.6Z"></path>
    <path class="cls-4" d="m588.86,17.51h35.4v5.4h-29v26h27.1v5.4h-27.1v29.2h29.9v5.4h-36.3V17.51Z"></path>
    <path class="cls-4" d="m657.26,17.51h6.4v66h29.6v5.4h-36V17.51Z"></path>
    <path class="cls-4"
          d="m722.07,16.31c14.6,0,22.8,11.3,22.8,36.9s-8.2,36.9-22.8,36.9-22.8-11.3-22.8-36.9,8.2-36.9,22.8-36.9Zm0,68.4c10.2,0,16.4-8.4,16.4-31.5s-6.2-31.5-16.4-31.5-16.4,8.4-16.4,31.5,6.2,31.5,16.4,31.5Z"></path>
    <path class="cls-4"
          d="m798.88,64.71c-.9,16.3-8.4,25.4-21.2,25.4-14.6,0-22.8-11.3-22.8-36.9s8.2-36.9,22.8-36.9,20.5,10.3,20.5,22h-6.4c0-9.7-4.9-16.6-14.1-16.6-10.2,0-16.4,8.4-16.4,31.5s6.2,31.5,16.4,31.5c9,0,14.1-7.7,14.8-20h6.4Z"></path>
    <path class="cls-4"
          d="m822.78,17.51h8l21.1,71.4h-6.8l-5.8-20.8h-25l-5.8,20.8h-6.8l21.1-71.4Zm15.1,45.2l-11-40.2h-.2l-11,40.2h22.2Z"></path>
    <path class="cls-4" d="m857.39,17.51h6.4v66h29.6v5.4h-36V17.51Z"></path>
    <path class="cls-4"
          d="m923.99,17.51h17.2c20.8,0,25.9,12.4,25.9,35.7s-5.1,35.7-25.9,35.7h-17.2V17.51Zm6.4,66h10.4c14,0,19.9-7,19.9-30.2s-5.9-30.4-19.9-30.4h-10.4v60.6Z"></path>
    <path class="cls-4" d="m977.7,17.51h35.4v5.4h-29v26h27.1v5.4h-27.1v29.2h29.9v5.4h-36.3V17.51Z"></path>
    <path class="cls-4"
          d="m1077.41,35.81c0-8.8-4.1-14.1-12.8-14.1s-13.5,5.7-13.5,12.8c0,21.3,34.6,9.6,34.6,34.7,0,13.8-8.6,20.9-21.6,20.9s-20.8-7.2-20.8-21.2v-2.1h6.4v2.7c0,9.1,4.8,15.2,14.2,15.2s15.4-4.5,15.4-14.5c0-21.2-34.6-9.1-34.6-35,0-11.2,7.3-18.9,19.7-18.9,13.3,0,19.4,6.8,19.4,19.5h-6.4Z"></path>
    <path class="cls-4"
          d="m1109.51,17.51h8l21.1,71.4h-6.8l-5.8-20.8h-25l-5.8,20.8h-6.8l21.1-71.4Zm15.1,45.2l-11-40.2h-.2l-11,40.2h22.2Z"></path>
    <path class="cls-4"
          d="m1143.72,17.51h6.4v51.3c0,10.7,4.6,15.9,14,15.9s14-5.2,14-15.9V17.51h6.4v51.4c0,15-7.3,21.2-20.4,21.2s-20.4-6.2-20.4-21.2V17.51ZM1174.42,0l-9.8,14.1h-4.8L1167.32,0h7.1Z"></path>
    <path class="cls-4"
          d="m1194.72,17.51h17.2c20.8,0,25.9,12.4,25.9,35.7s-5.1,35.7-25.9,35.7h-17.2V17.51Zm6.4,66h10.4c14,0,19.9-7,19.9-30.2s-5.9-30.4-19.9-30.4h-10.4v60.6Z"></path>
    <path class="cls-4" d="m1248.43,17.51h35.4v5.4h-29v26h27.1v5.4h-27.1v29.2h29.9v5.4h-36.3V17.51Z"></path>
    <path class="cls-4" d="m326.84,127.71h-22.38v-6.57h52.56v6.57h-22.39v80.29h-7.79v-80.29Z"></path>
    <path class="cls-4"
          d="m336.63,210.01h-11.79v-80.29h-22.38v-10.57h56.56v10.57h-22.39v80.29Zm-7.79-4h3.79v-80.29h22.39v-2.57h-48.56v2.57h22.38v80.29Z"></path>
    <path class="cls-4"
          d="m382.68,121.15h9.73l25.67,86.86h-8.27l-7.06-25.3h-30.41l-7.06,25.3h-8.27l25.67-86.86Zm-10.46-4.14l11.68-17.15h7.3l11.68,17.15h-7.3l-8.03-12.17-8.03,12.17h-7.3Zm28.83,59.13l-13.38-48.91h-.24l-13.38,48.91h27.01Z"></path>
    <path class="cls-4"
          d="m420.76,210.01h-12.47l-7.06-25.3h-27.38l-7.06,25.3h-12.47l26.85-90.86h12.72l26.85,90.86Zm-9.43-4h4.08l-24.49-82.86h-6.74l-24.49,82.86h4.08l7.06-25.3h33.45l7.06,25.3Zm-7.66-27.87h-32.25l14.48-52.91h3.3l14.48,52.91Zm-27.01-4h21.77l-10.88-39.77-10.88,39.77Zm29.99-55.13h-12.16l-6.95-10.54-6.95,10.54h-12.16l14.4-21.15h9.41l14.4,21.15Zm-10-4h2.44l-8.96-13.15h-2.17l8.68,13.15Zm-20.65,0h2.44l8.68-13.15h-2.17l-8.96,13.15Z"></path>
    <path class="cls-4"
          d="m431.59,121.15h13.5l20.93,77.13h.24l20.92-77.13h12.77v86.86h-7.79v-79.56h-.24l-22.51,79.56h-7.3l-22.51-79.56h-.24v79.56h-7.79v-86.86Z"></path>
    <path class="cls-4"
          d="m501.96,210.01h-11.79v-68.01l-19.24,68.01h-10.33l-19.24-68.01v68.01h-11.79v-90.86h17.03l19.52,71.94,19.52-71.94h16.3v90.86Zm-7.79-4h3.79v-82.86h-9.24l-20.92,77.13h-3.3l-20.93-77.13h-9.97v82.86h3.79v-79.56h3.76l22.51,79.56h4.27l22.51-79.56h3.76v79.56Z"></path>
    <path class="cls-4"
          d="m520.4,121.15h43.07v6.57h-35.28v31.63h32.97v6.57h-32.97v35.52h36.38v6.57h-44.16v-86.86Z"></path>
    <path class="cls-4"
          d="m566.56,210.01h-48.16v-90.86h47.07v10.57h-35.28v27.63h32.97v10.57h-32.97v31.52h36.38v10.57Zm-44.16-4h40.16v-2.57h-36.38v-39.52h32.97v-2.57h-32.97v-35.63h35.28v-2.57h-39.07v82.86Z"></path>
    <path class="cls-4"
          d="m605.07,170.3v-6.57h27.86v44.28h-6.08v-14.36h-.24c-2.68,9.61-10.46,15.82-19.1,15.82-17.76,0-27.74-13.75-27.74-44.89s9.98-44.89,27.74-44.89c16.55,0,23.97,10.83,24.94,25.79h-7.79c0-10.46-5.72-19.22-17.15-19.22-12.41,0-19.95,10.22-19.95,38.32s7.54,38.32,19.95,38.32c11.68,0,18.13-10.46,18.13-30.78v-1.82h-20.56Z"></path>
    <path class="cls-4"
          d="m607.51,211.47c-19.73,0-29.74-15.78-29.74-46.89s10.01-46.89,29.74-46.89c16.21,0,25.77,9.82,26.94,27.66l.14,2.13h-11.92v-2c0-12.7-7.83-17.22-15.15-17.22-7.71,0-17.95,3.77-17.95,36.32s10.25,36.32,17.95,36.32c13.27,0,16.1-15.51,16.13-28.6h-20.56v-10.57h31.86v48.28h-10.08v-7.94c-4.08,5.83-10.39,9.4-17.34,9.4Zm0-89.78c-17.32,0-25.74,14.03-25.74,42.89s8.42,42.89,25.74,42.89c7.88,0,14.78-5.77,17.17-14.35l.41-1.46h3.76v14.36h2.08v-40.28h-23.86v2.57h20.56v3.82c0,12.24-2.61,32.78-20.13,32.78-14.77,0-21.95-13.19-21.95-40.32s7.18-40.32,21.95-40.32c10.84,0,18.32,7.64,19.09,19.22h3.67c-1.16-10.4-6.22-21.79-22.76-21.79Z"></path>
    <path class="cls-4"
          d="m670.64,121.15h9.73l25.67,86.86h-8.27l-7.06-25.3h-30.42l-7.06,25.3h-8.27l25.67-86.86Zm18.37,54.99l-13.38-48.91h-.24l-13.38,48.91h27.01Z"></path>
    <path class="cls-4"
          d="m708.72,210.01h-12.47l-7.06-25.3h-27.38l-7.06,25.3h-12.47l26.85-90.86h12.72l26.85,90.86Zm-9.43-4h4.08l-24.49-82.86h-6.74l-24.49,82.86h4.08l7.06-25.3h33.45l7.06,25.3Zm-7.66-27.87h-32.25l14.48-52.91h3.3l14.48,52.91Zm-27.01-4h21.77l-10.88-39.77-10.88,39.77Z"></path>
    <path class="cls-4"
          d="m754.1,121.15h43.07v6.57h-35.28v31.63h32.97v6.57h-32.97v35.52h36.38v6.57h-44.16v-86.86Z"></path>
    <path class="cls-4"
          d="m800.26,210.01h-48.16v-90.86h47.07v10.57h-35.28v27.63h32.97v10.57h-32.97v31.52h36.38v10.57Zm-44.16-4h40.16v-2.57h-36.38v-39.52h32.97v-2.57h-32.97v-35.63h35.28v-2.57h-39.07v82.86Z"></path>
    <path class="cls-4"
          d="m887.56,143.41c0-10.71-4.99-17.15-15.57-17.15s-16.42,6.93-16.42,15.57c0,25.91,42.09,11.68,42.09,42.22,0,16.79-10.46,25.43-26.28,25.43s-25.3-8.76-25.3-25.79v-2.55h7.79v3.29c0,11.07,5.84,18.49,17.28,18.49s18.74-5.47,18.74-17.64c0-25.79-42.09-11.07-42.09-42.58,0-13.63,8.88-22.99,23.97-22.99,16.18,0,23.6,8.27,23.6,23.72h-7.79Z"></path>
    <path class="cls-4"
          d="m871.38,211.47c-17.61,0-27.3-9.87-27.3-27.79v-4.55h11.79v5.29c0,14.35,9.57,16.49,15.28,16.49,6.25,0,16.74-2.03,16.74-15.64,0-10.8-8.38-13.55-18.09-16.73-11.25-3.68-24-7.86-24-25.85,0-15.18,10.19-24.99,25.97-24.99,16.99,0,25.6,8.65,25.6,25.72v2h-11.79v-2c0-10.06-4.57-15.15-13.57-15.15s-14.42,5.33-14.42,13.57c0,10.98,8.52,13.79,18.38,17.05,11.12,3.67,23.71,7.83,23.71,25.17s-10.57,27.43-28.28,27.43Zm-23.3-28.35v.55c0,15.79,7.84,23.79,23.3,23.79s24.28-8.54,24.28-23.43-10.19-17.81-20.97-21.37c-10.39-3.43-21.13-6.97-21.13-20.85,0-10.51,7.4-17.57,18.42-17.57s16.87,6.07,17.52,17.15h3.8c-.61-13.44-7.5-19.72-21.56-19.72s-21.97,8.04-21.97,20.99c0,15.09,10.32,18.47,21.25,22.05,10.25,3.36,20.85,6.83,20.85,20.53,0,12.3-7.75,19.64-20.74,19.64-12.07,0-19.28-7.66-19.28-20.49v-1.29h-3.79Z"></path>
    <path class="cls-4"
          d="m940.97,119.69c17.76,0,27.74,13.75,27.74,44.89s-9.98,44.89-27.74,44.89-27.74-13.75-27.74-44.89,9.98-44.89,27.74-44.89Zm0,83.21c12.41,0,19.95-10.22,19.95-38.32s-7.54-38.32-19.95-38.32-19.95,10.22-19.95,38.32,7.54,38.32,19.95,38.32Z"></path>
    <path class="cls-4"
          d="m940.97,211.47c-19.73,0-29.74-15.78-29.74-46.89s10.01-46.89,29.74-46.89,29.74,15.78,29.74,46.89-10.01,46.89-29.74,46.89Zm0-89.78c-17.32,0-25.74,14.03-25.74,42.89s8.42,42.89,25.74,42.89,25.74-14.03,25.74-42.89-8.42-42.89-25.74-42.89Zm0,83.21c-14.77,0-21.95-13.19-21.95-40.32s7.18-40.32,21.95-40.32,21.95,13.19,21.95,40.32-7.18,40.32-21.95,40.32Zm0-76.65c-7.71,0-17.95,3.77-17.95,36.32s10.25,36.32,17.95,36.32,17.95-3.77,17.95-36.32-10.25-36.32-17.95-36.32Z"></path>
    <path class="cls-4"
          d="m986.47,121.15h7.79v62.41c0,13.02,5.6,19.34,17.03,19.34s17.03-6.33,17.03-19.34v-62.41h7.79v62.53c0,18.25-8.88,25.79-24.82,25.79s-24.82-7.54-24.82-25.79v-62.53Z"></path>
    <path class="cls-4"
          d="m1011.29,211.47c-17.8,0-26.82-9.35-26.82-27.79v-64.53h11.79v64.41c0,11.83,4.78,17.34,15.03,17.34s15.03-5.51,15.03-17.34v-64.41h11.79v64.53c0,18.44-9.02,27.79-26.82,27.79Zm-22.82-88.32v60.53c0,16.23,7.25,23.79,22.82,23.79s22.82-7.56,22.82-23.79v-60.53h-3.79v60.41c0,14.16-6.4,21.34-19.03,21.34s-19.03-7.18-19.03-21.34v-60.41h-3.79Z"></path>
    <path class="cls-4"
          d="m1092.68,143.41c0-10.71-4.99-17.15-15.57-17.15s-16.42,6.93-16.42,15.57c0,25.91,42.09,11.68,42.09,42.22,0,16.79-10.46,25.43-26.28,25.43s-25.3-8.76-25.3-25.79v-2.55h7.79v3.29c0,11.07,5.84,18.49,17.28,18.49s18.74-5.47,18.74-17.64c0-25.79-42.09-11.07-42.09-42.58,0-13.63,8.88-22.99,23.97-22.99,16.18,0,23.6,8.27,23.6,23.72h-7.79Z"></path>
    <path class="cls-4"
          d="m1076.5,211.47c-17.61,0-27.3-9.87-27.3-27.79v-4.55h11.79v5.29c0,14.35,9.57,16.49,15.28,16.49,6.25,0,16.74-2.03,16.74-15.64,0-10.8-8.38-13.55-18.09-16.73-11.25-3.68-24-7.86-24-25.85,0-15.18,10.19-24.99,25.97-24.99,16.99,0,25.6,8.65,25.6,25.72v2h-11.79v-2c0-10.06-4.57-15.15-13.57-15.15s-14.42,5.33-14.42,13.57c0,10.98,8.52,13.79,18.38,17.05,11.12,3.67,23.71,7.83,23.71,25.17s-10.57,27.43-28.28,27.43Zm-23.3-28.35v.55c0,15.79,7.84,23.79,23.3,23.79s24.28-8.54,24.28-23.43-10.19-17.81-20.97-21.37c-10.39-3.43-21.13-6.97-21.13-20.85,0-10.51,7.4-17.57,18.42-17.57s16.87,6.07,17.52,17.15h3.8c-.61-13.44-7.5-19.72-21.56-19.72s-21.97,8.04-21.97,20.99c0,15.09,10.32,18.47,21.25,22.05,10.25,3.36,20.85,6.83,20.85,20.53,0,12.3-7.75,19.64-20.74,19.64-12.07,0-19.28-7.66-19.28-20.49v-1.29h-3.79Z"></path>
    <path class="cls-4"
          d="m1137.81,121.15h9.73l25.67,86.86h-8.27l-7.06-25.3h-30.41l-7.06,25.3h-8.27l25.67-86.86Zm18.37,54.99l-13.38-48.91h-.24l-13.38,48.91h27.01Z"></path>
    <path class="cls-4"
          d="m1175.89,210.01h-12.47l-7.06-25.3h-27.38l-7.06,25.3h-12.47l26.85-90.86h12.72l26.85,90.86Zm-9.43-4h4.08l-24.49-82.86h-6.74l-24.49,82.86h4.08l7.06-25.3h33.45l7.06,25.3Zm-7.66-27.87h-32.25l14.48-52.91h3.3l14.48,52.91Zm-27.01-4h21.77l-10.88-39.77-10.88,39.77Z"></path>
    <polygon class="cls-3"
             points="245.19 208.75 242.28 208.75 242.28 15.95 245.19 16.06 245.19 208.75"></polygon>
    <path class="cls-2"
          d="m170.95,179.24c.62-.67,1.23-1.35,1.83-2.03.21-.24.42-.49.63-.73.57-.67,1.14-1.34,1.69-2.03.22-.27.43-.54.65-.81.53-.67,1.05-1.35,1.57-2.03.22-.29.44-.59.65-.88.49-.67.98-1.35,1.45-2.04.22-.32.44-.63.65-.95.46-.68.9-1.36,1.34-2.05.22-.34.44-.67.65-1.02.42-.68.83-1.36,1.23-2.05.21-.36.43-.72.64-1.09.38-.67.75-1.35,1.12-2.03.21-.39.43-.78.64-1.17.34-.65.66-1.31.99-1.97.22-.44.44-.87.65-1.31.26-.55.51-1.12.76-1.68,1.13-2.5,2.16-5.05,3.08-7.65.06-.17.13-.34.19-.52.05-.15.11-.29.16-.43,0,0-.01,0-.02,0,3.04-8.91,4.82-18.39,5.12-28.25.04-1,.06-2.13.06-3.14,0-26.59-10.57-50.66-27.99-68.15-.24-.24-.48-.49-.72-.73-.03-.03-.05-.05-.08-.08,0,0-.02-.01-.02-.02-17.52-17.33-41.61-28.03-68.21-28.03-13.94,0-27.18,2.96-39.16,8.26,0,0,0-.02,0-.02-.33.15-.66.31-1,.46-.48.22-.95.44-1.43.66-.62.3-1.24.6-1.86.91-.46.23-.92.46-1.37.7-.63.33-1.25.67-1.88,1.01-.43.24-.86.47-1.28.71-.66.37-1.3.76-1.95,1.15-.38.23-.76.45-1.13.68-.73.45-1.44.92-2.16,1.39-.28.19-.57.36-.85.55-.96.65-1.91,1.31-2.84,1.99-.03.02-.05.04-.08.06-2,1.45-3.94,2.98-5.81,4.58,0,0,0,0,0,0-.92.78-1.83,1.59-2.72,2.4-.08.07-.16.15-.24.23-.81.75-1.61,1.51-2.4,2.29-.1.1-.2.2-.3.3-.77.76-1.52,1.54-2.26,2.33-.1.1-.19.21-.29.31-.75.8-1.48,1.61-2.2,2.44-.08.09-.15.17-.23.26-.74.86-1.47,1.73-2.18,2.61-.04.05-.09.11-.13.16-.75.93-1.48,1.88-2.19,2.84,0,0,0,0-.01.01C9.79,71.82,2.7,91.77,2.7,113.38c0,53.61,43.45,97.04,97.04,97.04,13.94,0,27.17-2.96,39.15-8.25,0,0,0,.02,0,.02.33-.15.66-.31.99-.46.48-.22.96-.44,1.44-.67.64-.3,1.27-.62,1.91-.94.44-.22.87-.44,1.3-.66.67-.35,1.34-.72,2.01-1.08.38-.21.76-.42,1.14-.63.73-.42,1.45-.85,2.17-1.28.3-.18.61-.36.91-.55.84-.52,1.67-1.06,2.49-1.6.17-.11.35-.22.52-.34,4.06-2.73,7.9-5.76,11.49-9.05.11-.1.22-.21.34-.32.77-.71,1.53-1.43,2.27-2.17.17-.17.34-.34.5-.51.68-.68,1.35-1.37,2.01-2.07.2-.21.39-.43.59-.64ZM75.07,60.56c-7.71,5.72-15.25,12.83-22.34,21.63-3.5,4.35-6.3,8.93-8.64,13.52.05-8.9.99-18.1,2.43-27.26.27-1.69.54-3.29.83-4.83,8.44-2.28,17.81-3.63,27.72-3.06Zm-10.1,89.91c-.58-.49-1.14-1-1.7-1.51,9.3-31.17,38.28-52.85,72.09-55.93.52-.05,1.02-.08,1.53-.13,18.9,22.33,19.65,48.38,15.53,69.55-25.72,8.2-59.54,11.57-87.45-11.99Z"></path>
    <path class="cls-1"
          d="m99.69,16.39c-42.58,0-78.76,27.49-91.77,65.66,5.95-2.64,53.3-39.53,102.29-10.66,75.74,42.91,32.06,120.96,28.69,130.79,34.07-15.05,57.81-49.12,57.81-88.75,0-53.59-43.4-97.04-97.01-97.04Z"></path>
    <path class="cls-6"
          d="m99.76,210.42c42.59,0,78.75-27.47,91.79-65.64-5.95,2.62-75.98,48.39-126.56,5.69-22.48-18.99-23.38-50.71-18.45-82.02,4.11-25.95,10.64-34,14-43.81C26.51,39.69,2.71,73.75,2.71,113.37c0,53.61,43.45,97.04,97.04,97.04Z"></path>
    <path class="cls-5"
          d="m52.74,82.18c-18.68,23.18-17.37,53.04-32.9,55.5-6.06.95-16.03-4.37-16.99-20.73,1.5,42.66,30.59,78.28,69.95,89.66-9.22-12.72-12.66-19.02-12.66-35.98,0-42.51,34.03-73.85,75.23-77.6,32.05-2.91,47.43,4.13,61.27,23.67.04-1.04.07-2.24.07-3.31,0-27-10.89-51.41-28.79-68.95-6.15-6.06-69.88-18.42-115.18,37.74Z"></path>
</svg>
